<?xml version="1.0" encoding="utf-8"?>
<!-- Generator: Adobe Illustrator 24.1.1, SVG Export Plug-In . SVG Version: 6.00 Build 0)  -->
<!DOCTYPE svg PUBLIC "-//W3C//DTD SVG 1.1//EN" "http://www.w3.org/Graphics/SVG/1.1/DTD/svg11.dtd" [
	<!ENTITY ns_extend "http://ns.adobe.com/Extensibility/1.0/">
	<!ENTITY ns_ai "http://ns.adobe.com/AdobeIllustrator/10.0/">
	<!ENTITY ns_graphs "http://ns.adobe.com/Graphs/1.0/">
	<!ENTITY ns_vars "http://ns.adobe.com/Variables/1.0/">
	<!ENTITY ns_imrep "http://ns.adobe.com/ImageReplacement/1.0/">
	<!ENTITY ns_sfw "http://ns.adobe.com/SaveForWeb/1.0/">
	<!ENTITY ns_custom "http://ns.adobe.com/GenericCustomNamespace/1.0/">
	<!ENTITY ns_adobe_xpath "http://ns.adobe.com/XPath/1.0/">
]>
<svg version="1.1" id="Layer_1" xmlns:x="&ns_extend;" xmlns:i="&ns_ai;" xmlns:graph="&ns_graphs;"
	 xmlns="http://www.w3.org/2000/svg" xmlns:xlink="http://www.w3.org/1999/xlink" x="0px" y="0px" viewBox="0 0 512 512"
	 style="enable-background:new 0 0 512 512;" xml:space="preserve">
<style type="text/css">
	.st0{fill:#FFFFFF;}
	.st1{fill:url(#SVGID_1_);}
	.st2{fill:url(#SVGID_2_);}
	.st3{fill:url(#SVGID_3_);}
	.st4{fill:url(#SVGID_4_);}
</style>
<metadata>
	<sfw  xmlns="&ns_sfw;">
		<slices></slices>
		<sliceSourceBounds  bottomLeftOrigin="true" height="491.96" width="491.96" x="10.02" y="-501.98"></sliceSourceBounds>
	</sfw>
</metadata>
<g id="Sticker_1__x28_Primary_x29__1_">
	<path class="st0" d="M501.98,255.99c0,135.86-110.13,245.99-245.99,245.99c-135.85,0-245.97-110.13-245.97-245.99
		c0-135.84,110.13-245.97,245.97-245.97C391.85,10.02,501.98,120.15,501.98,255.99z"/>
	<g>
		
			<linearGradient id="SVGID_1_" gradientUnits="userSpaceOnUse" x1="312.6862" y1="-65.2045" x2="312.6862" y2="283.5789" gradientTransform="matrix(1 0 0 -1 -56 368)">
			<stop  offset="0" style="stop-color:#00D3D5"/>
			<stop  offset="1" style="stop-color:#8778DC"/>
		</linearGradient>
		<path class="st1" d="M256.69,28.8c-125.27,0-227.19,101.92-227.19,227.19c0,125.27,101.92,227.19,227.19,227.19
			c125.28,0,227.19-101.92,227.19-227.19C483.88,130.72,381.96,28.8,256.69,28.8z M256.69,435.01
			c-98.71,0-179.02-80.3-179.02-179.02c0-98.71,80.31-179.02,179.02-179.02c98.71,0,179.02,80.31,179.02,179.02
			C435.7,354.71,355.4,435.01,256.69,435.01z"/>
		
			<linearGradient id="SVGID_2_" gradientUnits="userSpaceOnUse" x1="312.466" y1="-65.1994" x2="312.466" y2="283.581" gradientTransform="matrix(1 0 0 -1 -56 368)">
			<stop  offset="0" style="stop-color:#00D3D5"/>
			<stop  offset="1" style="stop-color:#8778DC"/>
		</linearGradient>
		<path class="st2" d="M258.6,189.23h0.02h0.01h0c17.64,0.01,34.22,6.89,46.7,19.37c6.33,6.33,11.2,13.72,14.48,21.77l30.12-30.15
			c2.8-2.79,4.89-5.6,6.34-8.4c2.3-3.91,3.63-8.44,3.63-13.29c0-14.57-11.81-26.37-26.37-26.37l-180.51,0.18v53.1l62.35-0.03
			C226.97,195.34,242.09,189.23,258.6,189.23z"/>
		
			<linearGradient id="SVGID_3_" gradientUnits="userSpaceOnUse" x1="314.6013" y1="-65.2072" x2="314.6013" y2="283.5839" gradientTransform="matrix(1 0 0 -1 -56 368)">
			<stop  offset="0" style="stop-color:#00D3D5"/>
			<stop  offset="1" style="stop-color:#8778DC"/>
		</linearGradient>
		<path class="st3" d="M258.62,220.21c0,0-0.01,0-0.02,0c-19.36,0-35.07,15.7-35.08,35.06c-0.01,19.37,15.69,35.08,35.06,35.09
			c0,0,0.01,0,0.02,0c19.36,0,35.06-15.7,35.07-35.06C293.68,235.93,277.98,220.22,258.62,220.21z"/>
		
			<linearGradient id="SVGID_4_" gradientUnits="userSpaceOnUse" x1="312.6318" y1="-65.1982" x2="312.6318" y2="283.5712" gradientTransform="matrix(1 0 0 -1 -56 368)">
			<stop  offset="0" style="stop-color:#00D3D5"/>
			<stop  offset="1" style="stop-color:#8778DC"/>
		</linearGradient>
		<path class="st4" d="M258.57,321.35c-28.27-0.02-52.43-17.89-61.83-42.92l-33.29,33.33c-2.79,2.8-4.89,5.6-6.35,8.41
			c-2.29,3.91-3.63,8.44-3.63,13.3c0,14.56,11.81,26.36,26.37,26.36l179.86-0.18l0.08-53.1l-59.62,0.03
			C288.79,315.8,274.32,321.35,258.57,321.35z"/>
	</g>
</g>
</svg>
